<svg xmlns="http://www.w3.org/2000/svg" fill="#a3a8ac" width="46" height="46" viewBox="0 0 24 24"><path d="M3.346 4.521h1.808v1.762H3.346zM6.608 4.521h1.808v1.762H6.608zM9.869 4.521h1.808v1.762H9.869zM3.346 7.668h1.808V9.43H3.346zM6.608 7.668h1.808V9.43H6.608zM9.869 7.668h1.808V9.43H9.869zM3.346 10.815h1.808v1.761H3.346zM6.608 10.815h1.808v1.761H6.608zM9.869 10.815h1.808v1.761H9.869zM16.322 10.815h1.808v1.761h-1.808zM19.584 10.815h1.808v1.761h-1.808zM16.322 13.962h1.808v1.761h-1.808zM19.584 13.962h1.808v1.761h-1.808zM16.322 17.094h1.808v1.761h-1.808zM19.584 17.094h1.808v1.761h-1.808zM3.346 13.962h1.808v1.761H3.346zM6.608 13.962h1.808v1.761H6.608zM9.869 13.962h1.808v1.761H9.869z"/><path d="M23.953 22.01V8.95a.648.648 0 00-.657-.64H14.98v-6.38a.649.649 0 00-.656-.64H.7a.649.649 0 00-.657.64V22.07a.649.649 0 00.657.64h13.626c.017 0 .031-.009.048-.01.017.001.031.01.048.01H23.3a.649.649 0 00.657-.64c0-.02 0-.04-.003-.06zm-10.287-.58H9.295v-3.9H5.729v3.9H1.358V2.57h12.308zm8.973 0H15.08V9.59h7.56z"/></svg>